<?xml version="1.0" encoding="UTF-8"?>
<svg id="Layer_2" data-name="Layer 2" xmlns="http://www.w3.org/2000/svg" viewBox="0 0 115.6 115.6">
    <defs>
        <style>
            .cls-1 {
            fill: #0f766e;
            stroke-width: 0px;
            }
        </style>
    </defs>
    <g id="Layer_1-2" data-name="Layer 1">
        <path class="cls-1" d="M114.11,56.31c-10.48,0-19.01-8.53-19.01-19.01,0-.82-.67-1.49-1.49-1.49s-1.49.67-1.49,1.49c0,10.48-8.53,19.01-19.01,19.01h-3.6c-5.73,0-10.23-4.49-10.23-10.23v-3.6c0-10.48,8.53-19.01,19.01-19.01.82,0,1.49-.67,1.49-1.49s-.67-1.49-1.49-1.49c-10.48,0-19.01-8.53-19.01-19.01,0-.82-.67-1.49-1.49-1.49s-1.49.67-1.49,1.49c0,10.48-8.53,19.01-19.01,19.01-.82,0-1.49.67-1.49,1.49s.67,1.49,1.49,1.49c10.48,0,19.01,8.53,19.01,19.01v3.6c0,5.73-4.49,10.23-10.23,10.23h-3.6c-10.48,0-19.01-8.53-19.01-19.01,0-.82-.67-1.49-1.49-1.49s-1.49.67-1.49,1.49c0,10.48-8.53,19.01-19.01,19.01-.82,0-1.49.67-1.49,1.49s.67,1.49,1.49,1.49c10.48,0,19.01,8.53,19.01,19.01,0,.82.67,1.49,1.49,1.49s1.49-.67,1.49-1.49c0-10.48,8.53-19.01,19.01-19.01h3.6c5.73,0,10.23,4.49,10.23,10.23v3.6c0,10.48-8.53,19.01-19.01,19.01-.82,0-1.49.67-1.49,1.49s.67,1.49,1.49,1.49c10.48,0,19.01,8.53,19.01,19.01,0,.82.67,1.49,1.49,1.49s1.49-.67,1.49-1.49c0-10.48,8.53-19.01,19.01-19.01.82,0,1.49-.67,1.49-1.49s-.67-1.49-1.49-1.49c-10.48,0-19.01-8.53-19.01-19.01v-3.6c0-5.73,4.49-10.23,10.23-10.23h3.6c10.48,0,19.01,8.53,19.01,19.01,0,.82.67,1.49,1.49,1.49s1.49-.67,1.49-1.49c0-10.48,8.53-19.01,19.01-19.01.82,0,1.49-.67,1.49-1.49s-.67-1.49-1.49-1.49Z"/>
    </g>
</svg>